<?xml version="1.0" encoding="UTF-8"?>
<!DOCTYPE svg PUBLIC "-//W3C//DTD SVG 1.1//EN"
    "http://www.w3.org/Graphics/SVG/1.1/DTD/svg11.dtd">
<svg font-size="1" viewBox="0.0 0.0 1000.0 376.1771855586567" stroke="rgb(0,0,0)" xmlns="http://www.w3.org/2000/svg" width="1000.0000" stroke-opacity="1" height="376.1772" version="1.1" xmlns:xlink="http://www.w3.org/1999/xlink">
  <defs>
  </defs>
  <g stroke-linejoin="miter" fill-opacity="1.0" fill="rgb(255,255,255)" stroke="rgb(0,0,0)" stroke-linecap="butt" stroke-miterlimit="10.0" stroke-opacity="1.0" stroke-width="2.4533314021832653">
    <path d="M 880.3727,70.9102 c 0.0000,-14.9172 -12.0928,-27.0100 -27.0100 -27.0100c -14.9172,-0.0000 -27.0100,12.0928 -27.0100 27.0100c -0.0000,14.9172 12.0928,27.0100 27.0100 27.0100c 14.9172,0.0000 27.0100,-12.0928 27.0100 -27.0100Z"/>
  </g>
  <g stroke-linejoin="miter" fill-opacity="1.0" fill="rgb(24,139,24)" stroke="rgb(0,0,0)" stroke-linecap="butt" stroke-miterlimit="10.0" stroke-opacity="1.0" stroke-width="0.0">
    <path d="M 880.3727,70.9102 c 0.0000,-14.9172 -12.0928,-27.0100 -27.0100 -27.0100c -14.9172,-0.0000 -27.0100,12.0928 -27.0100 27.0100c -0.0000,14.9172 12.0928,27.0100 27.0100 27.0100c 14.9172,0.0000 27.0100,-12.0928 27.0100 -27.0100Z"/>
  </g>
  <g stroke-linejoin="miter" fill-opacity="1.0" font-size="18.00666246511209px" fill="rgb(0,0,0)" stroke="rgb(0,0,0)" font-family="Helvetica" stroke-linecap="butt" stroke-miterlimit="10.0" stroke-opacity="1.0" stroke-width="2.4533314021832653">
    <text transform="matrix(1.0000,0.0000,0.0000,1.0000,853.3627,70.9102)" stroke="none" dominant-baseline="middle" text-anchor="middle">R
    </text>
  </g>
  <g stroke-linejoin="miter" fill-opacity="1.0" fill="rgb(255,255,255)" stroke="rgb(0,0,0)" stroke-linecap="butt" stroke-miterlimit="10.0" stroke-opacity="1.0" stroke-width="2.4533314021832653">
    <path d="M 594.8771,174.3495 c 0.0000,-14.9172 -12.0928,-27.0100 -27.0100 -27.0100c -14.9172,-0.0000 -27.0100,12.0928 -27.0100 27.0100c -0.0000,14.9172 12.0928,27.0100 27.0100 27.0100c 14.9172,0.0000 27.0100,-12.0928 27.0100 -27.0100Z"/>
  </g>
  <g stroke-linejoin="miter" fill-opacity="1.0" fill="rgb(221,60,60)" stroke="rgb(0,0,0)" stroke-linecap="butt" stroke-miterlimit="10.0" stroke-opacity="1.0" stroke-width="0.0">
    <path d="M 594.8771,174.3495 c 0.0000,-14.9172 -12.0928,-27.0100 -27.0100 -27.0100c -14.9172,-0.0000 -27.0100,12.0928 -27.0100 27.0100c -0.0000,14.9172 12.0928,27.0100 27.0100 27.0100c 14.9172,0.0000 27.0100,-12.0928 27.0100 -27.0100Z"/>
  </g>
  <g stroke-linejoin="miter" fill-opacity="1.0" font-size="18.00666246511209px" fill="rgb(0,0,0)" stroke="rgb(0,0,0)" font-family="Helvetica" stroke-linecap="butt" stroke-miterlimit="10.0" stroke-opacity="1.0" stroke-width="2.4533314021832653">
    <text transform="matrix(1.0000,0.0000,0.0000,1.0000,567.8671,174.3495)" stroke="none" dominant-baseline="middle" text-anchor="middle">I
    </text>
  </g>
  <g stroke-linejoin="miter" fill-opacity="1.0" fill="rgb(255,255,255)" stroke="rgb(0,0,0)" stroke-linecap="butt" stroke-miterlimit="10.0" stroke-opacity="1.0" stroke-width="2.4533314021832653">
    <path d="M 612.1905,290.6897 c 0.0000,-14.9172 -12.0928,-27.0100 -27.0100 -27.0100c -14.9172,-0.0000 -27.0100,12.0928 -27.0100 27.0100c -0.0000,14.9172 12.0928,27.0100 27.0100 27.0100c 14.9172,0.0000 27.0100,-12.0928 27.0100 -27.0100Z"/>
  </g>
  <g stroke-linejoin="miter" fill-opacity="1.0" fill="rgb(255,255,0)" stroke="rgb(0,0,0)" stroke-linecap="butt" stroke-miterlimit="10.0" stroke-opacity="1.0" stroke-width="0.0">
    <path d="M 612.1905,290.6897 c 0.0000,-14.9172 -12.0928,-27.0100 -27.0100 -27.0100c -14.9172,-0.0000 -27.0100,12.0928 -27.0100 27.0100c -0.0000,14.9172 12.0928,27.0100 27.0100 27.0100c 14.9172,0.0000 27.0100,-12.0928 27.0100 -27.0100Z"/>
  </g>
  <g stroke-linejoin="miter" fill-opacity="1.0" font-size="18.00666246511209px" fill="rgb(0,0,0)" stroke="rgb(0,0,0)" font-family="Helvetica" stroke-linecap="butt" stroke-miterlimit="10.0" stroke-opacity="1.0" stroke-width="2.4533314021832653">
    <text transform="matrix(1.0000,0.0000,0.0000,1.0000,585.1805,290.6897)" stroke="none" dominant-baseline="middle" text-anchor="middle">E
    </text>
  </g>
  <g stroke-linejoin="miter" fill-opacity="1.0" fill="rgb(255,255,255)" stroke="rgb(0,0,0)" stroke-linecap="butt" stroke-miterlimit="10.0" stroke-opacity="1.0" stroke-width="2.4533314021832653">
    <path d="M 239.7497,250.8958 c 0.0000,-14.9172 -12.0928,-27.0100 -27.0100 -27.0100c -14.9172,-0.0000 -27.0100,12.0928 -27.0100 27.0100c -0.0000,14.9172 12.0928,27.0100 27.0100 27.0100c 14.9172,0.0000 27.0100,-12.0928 27.0100 -27.0100Z"/>
  </g>
  <g stroke-linejoin="miter" fill-opacity="1.0" fill="rgb(31,31,173)" stroke="rgb(0,0,0)" stroke-linecap="butt" stroke-miterlimit="10.0" stroke-opacity="1.0" stroke-width="0.0">
    <path d="M 239.7497,250.8958 c 0.0000,-14.9172 -12.0928,-27.0100 -27.0100 -27.0100c -14.9172,-0.0000 -27.0100,12.0928 -27.0100 27.0100c -0.0000,14.9172 12.0928,27.0100 27.0100 27.0100c 14.9172,0.0000 27.0100,-12.0928 27.0100 -27.0100Z"/>
  </g>
  <g stroke-linejoin="miter" fill-opacity="1.0" font-size="18.00666246511209px" fill="rgb(0,0,0)" stroke="rgb(0,0,0)" font-family="Helvetica" stroke-linecap="butt" stroke-miterlimit="10.0" stroke-opacity="1.0" stroke-width="2.4533314021832653">
    <text transform="matrix(1.0000,0.0000,0.0000,1.0000,212.7397,250.8958)" stroke="none" dominant-baseline="middle" text-anchor="middle">S
    </text>
  </g>
  <g stroke-linejoin="miter" fill-opacity="1.0" fill="rgb(0,0,0)" stroke="rgb(0,0,0)" stroke-linecap="butt" stroke-miterlimit="10.0" stroke-opacity="1.0" stroke-width="2.4533314021832653">
    <path d="M 746.3491,144.2064 l -0.0000,-40.5150 h -40.5150 l -0.0000,40.5150 Z"/>
  </g>
  <g stroke-linejoin="miter" fill-opacity="1.0" font-size="13.504996848834068px" fill="rgb(255,255,255)" stroke="rgb(0,0,0)" font-family="Helvetica" stroke-linecap="butt" stroke-miterlimit="10.0" stroke-opacity="1.0" stroke-width="2.4533314021832653">
    <text transform="matrix(1.0000,0.0000,0.0000,1.0000,726.0917,123.9489)" stroke="none" dominant-baseline="middle" text-anchor="middle">0.299
    </text>
  </g>
  <g stroke-linejoin="miter" fill-opacity="1.0" fill="rgb(0,0,0)" stroke="rgb(0,0,0)" stroke-linecap="butt" stroke-miterlimit="10.0" stroke-opacity="1.0" stroke-width="2.4533314021832653">
    <path d="M 731.6467,253.1197 l -0.0000,-40.5150 h -40.5150 l -0.0000,40.5150 Z"/>
  </g>
  <g stroke-linejoin="miter" fill-opacity="1.0" font-size="13.504996848834068px" fill="rgb(255,255,255)" stroke="rgb(0,0,0)" font-family="Helvetica" stroke-linecap="butt" stroke-miterlimit="10.0" stroke-opacity="1.0" stroke-width="2.4533314021832653">
    <text transform="matrix(1.0000,0.0000,0.0000,1.0000,711.3892,232.8622)" stroke="none" dominant-baseline="middle" text-anchor="middle">0.05
    </text>
  </g>
  <g stroke-linejoin="miter" fill-opacity="1.0" fill="rgb(0,0,0)" stroke="rgb(0,0,0)" stroke-linecap="butt" stroke-miterlimit="10.0" stroke-opacity="1.0" stroke-width="2.4533314021832653">
    <path d="M 451.4450,255.7666 l -0.0000,-40.5150 h -40.5150 l -0.0000,40.5150 Z"/>
  </g>
  <g stroke-linejoin="miter" fill-opacity="1.0" font-size="13.504996848834068px" fill="rgb(255,255,255)" stroke="rgb(0,0,0)" font-family="Helvetica" stroke-linecap="butt" stroke-miterlimit="10.0" stroke-opacity="1.0" stroke-width="2.4533314021832653">
    <text transform="matrix(1.0000,0.0000,0.0000,1.0000,431.1875,235.5091)" stroke="none" dominant-baseline="middle" text-anchor="middle">1
    </text>
  </g>
  <g stroke-linejoin="miter" fill-opacity="1.0" fill="rgb(0,0,0)" stroke="rgb(0,0,0)" stroke-linecap="butt" stroke-miterlimit="10.0" stroke-opacity="1.0" stroke-width="2.4533314021832653">
    <path d="M 1000.0000,40.5150 l -0.0000,-40.5150 h -40.5150 l -0.0000,40.5150 Z"/>
  </g>
  <g stroke-linejoin="miter" fill-opacity="1.0" font-size="13.504996848834068px" fill="rgb(255,255,255)" stroke="rgb(0,0,0)" font-family="Helvetica" stroke-linecap="butt" stroke-miterlimit="10.0" stroke-opacity="1.0" stroke-width="2.4533314021832653">
    <text transform="matrix(1.0000,0.0000,0.0000,1.0000,979.7425,20.2575)" stroke="none" dominant-baseline="middle" text-anchor="middle">0.1
    </text>
  </g>
  <g stroke-linejoin="miter" fill-opacity="1.0" fill="rgb(0,0,0)" stroke="rgb(0,0,0)" stroke-linecap="butt" stroke-miterlimit="10.0" stroke-opacity="1.0" stroke-width="2.4533314021832653">
    <path d="M 454.2181,136.2564 l -0.0000,-40.5150 h -40.5150 l -0.0000,40.5150 Z"/>
  </g>
  <g stroke-linejoin="miter" fill-opacity="1.0" font-size="13.504996848834068px" fill="rgb(255,255,255)" stroke="rgb(0,0,0)" font-family="Helvetica" stroke-linecap="butt" stroke-miterlimit="10.0" stroke-opacity="1.0" stroke-width="2.4533314021832653">
    <text transform="matrix(1.0000,0.0000,0.0000,1.0000,433.9606,115.9989)" stroke="none" dominant-baseline="middle" text-anchor="middle">0.1
    </text>
  </g>
  <g stroke-linejoin="miter" fill-opacity="1.0" fill="rgb(0,0,0)" stroke="rgb(0,0,0)" stroke-linecap="butt" stroke-miterlimit="10.0" stroke-opacity="1.0" stroke-width="2.4533314021832653">
    <path d="M 686.5850,376.1772 l -0.0000,-40.5150 h -40.5150 l -0.0000,40.5150 Z"/>
  </g>
  <g stroke-linejoin="miter" fill-opacity="1.0" font-size="13.504996848834068px" fill="rgb(255,255,255)" stroke="rgb(0,0,0)" font-family="Helvetica" stroke-linecap="butt" stroke-miterlimit="10.0" stroke-opacity="1.0" stroke-width="2.4533314021832653">
    <text transform="matrix(1.0000,0.0000,0.0000,1.0000,666.3275,355.9197)" stroke="none" dominant-baseline="middle" text-anchor="middle">0.1
    </text>
  </g>
  <g stroke-linejoin="miter" fill-opacity="1.0" fill="rgb(0,0,0)" stroke="rgb(0,0,0)" stroke-linecap="butt" stroke-miterlimit="10.0" stroke-opacity="1.0" stroke-width="2.4533314021832653">
    <path d="M 122.2562,332.7721 l -0.0000,-40.5150 h -40.5150 l -0.0000,40.5150 Z"/>
  </g>
  <g stroke-linejoin="miter" fill-opacity="1.0" font-size="13.504996848834068px" fill="rgb(255,255,255)" stroke="rgb(0,0,0)" font-family="Helvetica" stroke-linecap="butt" stroke-miterlimit="10.0" stroke-opacity="1.0" stroke-width="2.4533314021832653">
    <text transform="matrix(1.0000,0.0000,0.0000,1.0000,101.9987,312.5146)" stroke="none" dominant-baseline="middle" text-anchor="middle">0.1
    </text>
  </g>
  <g stroke-linejoin="miter" fill-opacity="1.0" fill="rgb(0,0,0)" stroke="rgb(0,0,0)" stroke-linecap="butt" stroke-miterlimit="10.0" stroke-opacity="1.0" stroke-width="2.4533314021832653">
    <path d="M 40.5150,239.0114 l -0.0000,-40.5150 h -40.5150 l -0.0000,40.5150 Z"/>
  </g>
  <g stroke-linejoin="miter" fill-opacity="1.0" font-size="13.504996848834068px" fill="rgb(255,255,255)" stroke="rgb(0,0,0)" font-family="Helvetica" stroke-linecap="butt" stroke-miterlimit="10.0" stroke-opacity="1.0" stroke-width="2.4533314021832653">
    <text transform="matrix(1.0000,0.0000,0.0000,1.0000,20.2575,218.7539)" stroke="none" dominant-baseline="middle" text-anchor="middle">0.05
    </text>
  </g>
  <g stroke-linejoin="miter" fill-opacity="0.0" fill="rgb(0,0,0)" stroke="rgb(0,0,0)" stroke-linecap="butt" stroke-miterlimit="10.0" stroke-opacity="1.0" stroke-width="2.4533314021832653">
    <path d="M 878.4364,60.8677 c 17.4260,-6.9795 44.0301,-17.6138 63.7084 -25.5146"/>
  </g>
  <g stroke-linejoin="miter" fill-opacity="1.0" fill="rgb(0,0,0)" stroke="rgb(0,0,0)" stroke-linecap="butt" stroke-miterlimit="10.0" stroke-opacity="1.0" stroke-width="0.0">
  </g>
  <g stroke-linejoin="miter" fill-opacity="1.0" fill="rgb(0,0,0)" stroke="rgb(0,0,0)" stroke-linecap="butt" stroke-miterlimit="10.0" stroke-opacity="1.0" stroke-width="0.0">
  </g>
  <g stroke-linejoin="miter" fill-opacity="1.0" fill="rgb(0,0,0)" stroke="rgb(0,0,0)" stroke-linecap="butt" stroke-miterlimit="10.0" stroke-opacity="1.0" stroke-width="0.0">
    <path d="M 954.6774,30.3212 c -7.7995,3.1315 -16.1198,1.9437 -16.1198 1.9437l 4.4206,2.7535 l 11.6992,-4.6973 c -7.7995,3.1315 -12.9883,9.7432 -12.9883 9.7432l 1.2891,-5.0460 Z"/>
  </g>
  <g stroke-linejoin="miter" fill-opacity="1.0" fill="rgb(0,0,0)" stroke="rgb(0,0,0)" stroke-linecap="butt" stroke-miterlimit="10.0" stroke-opacity="1.0" stroke-width="0.0">
    <path d="M 942.9781,35.0185 l -0.8333,0.3346 l -0.4570,-1.1383 l 1.2904,0.8038 l -0.8333,0.3346 l 0.4570,1.1383 Z"/>
  </g>
  <g stroke-linejoin="miter" fill-opacity="0.0" fill="rgb(0,0,0)" stroke="rgb(0,0,0)" stroke-linecap="butt" stroke-miterlimit="10.0" stroke-opacity="1.0" stroke-width="2.4533314021832653">
    <path d="M 593.6022,166.1491 c 24.4971,-7.8059 65.9769,-21.0166 93.8852 -29.9051"/>
  </g>
  <g stroke-linejoin="miter" fill-opacity="1.0" fill="rgb(0,0,0)" stroke="rgb(0,0,0)" stroke-linecap="butt" stroke-miterlimit="10.0" stroke-opacity="1.0" stroke-width="0.0">
  </g>
  <g stroke-linejoin="miter" fill-opacity="1.0" fill="rgb(0,0,0)" stroke="rgb(0,0,0)" stroke-linecap="butt" stroke-miterlimit="10.0" stroke-opacity="1.0" stroke-width="0.0">
  </g>
  <g stroke-linejoin="miter" fill-opacity="1.0" fill="rgb(0,0,0)" stroke="rgb(0,0,0)" stroke-linecap="butt" stroke-miterlimit="10.0" stroke-opacity="1.0" stroke-width="0.0">
    <path d="M 700.3554,132.1456 c -8.0083,2.5506 -16.2190,0.7553 -16.2190 0.7553l 4.2065,3.0706 l 12.0125,-3.8259 c -8.0083,2.5506 -13.6684,8.7636 -13.6684 8.7636l 1.6560,-4.9377 Z"/>
  </g>
  <g stroke-linejoin="miter" fill-opacity="1.0" fill="rgb(0,0,0)" stroke="rgb(0,0,0)" stroke-linecap="butt" stroke-miterlimit="10.0" stroke-opacity="1.0" stroke-width="0.0">
    <path d="M 688.3430,135.9715 l -0.8556,0.2725 l -0.3723,-1.1688 l 1.2279,0.8963 l -0.8556,0.2725 l 0.3723,1.1688 Z"/>
  </g>
  <g stroke-linejoin="miter" fill-opacity="0.0" fill="rgb(0,0,0)" stroke="rgb(0,0,0)" stroke-linecap="butt" stroke-miterlimit="10.0" stroke-opacity="1.0" stroke-width="2.4533314021832653">
    <path d="M 544.1150,187.2095 c -18.6153,10.0788 -51.3878,24.7665 -75.0851 33.8285"/>
  </g>
  <g stroke-linejoin="miter" fill-opacity="1.0" fill="rgb(0,0,0)" stroke="rgb(0,0,0)" stroke-linecap="butt" stroke-miterlimit="10.0" stroke-opacity="1.0" stroke-width="0.0">
  </g>
  <g stroke-linejoin="miter" fill-opacity="1.0" fill="rgb(0,0,0)" stroke="rgb(0,0,0)" stroke-linecap="butt" stroke-miterlimit="10.0" stroke-opacity="1.0" stroke-width="0.0">
  </g>
  <g stroke-linejoin="miter" fill-opacity="1.0" fill="rgb(0,0,0)" stroke="rgb(0,0,0)" stroke-linecap="butt" stroke-miterlimit="10.0" stroke-opacity="1.0" stroke-width="0.0">
    <path d="M 456.4158,225.8617 c 7.8503,-3.0020 16.1498,-1.6767 16.1498 -1.6767l -4.3744,-2.8263 l -11.7754,4.5030 c 7.8503,-3.0020 13.1478,-9.5269 13.1478 -9.5269l -1.3724,5.0239 Z"/>
  </g>
  <g stroke-linejoin="miter" fill-opacity="1.0" fill="rgb(0,0,0)" stroke="rgb(0,0,0)" stroke-linecap="butt" stroke-miterlimit="10.0" stroke-opacity="1.0" stroke-width="0.0">
    <path d="M 468.1912,221.3587 l 0.8387,-0.3207 l 0.4381,1.1457 l -1.2769,-0.8250 l 0.8387,-0.3207 l -0.4381,-1.1457 Z"/>
  </g>
  <g stroke-linejoin="miter" fill-opacity="0.0" fill="rgb(0,0,0)" stroke="rgb(0,0,0)" stroke-linecap="butt" stroke-miterlimit="10.0" stroke-opacity="1.0" stroke-width="2.4533314021832653">
    <path d="M 543.1077,163.5554 c -19.2511,-8.3927 -50.0916,-21.8335 -72.0028 -31.3774"/>
  </g>
  <g stroke-linejoin="miter" fill-opacity="1.0" fill="rgb(0,0,0)" stroke="rgb(0,0,0)" stroke-linecap="butt" stroke-miterlimit="10.0" stroke-opacity="1.0" stroke-width="0.0">
  </g>
  <g stroke-linejoin="miter" fill-opacity="1.0" fill="rgb(0,0,0)" stroke="rgb(0,0,0)" stroke-linecap="butt" stroke-miterlimit="10.0" stroke-opacity="1.0" stroke-width="0.0">
  </g>
  <g stroke-linejoin="miter" fill-opacity="1.0" fill="rgb(0,0,0)" stroke="rgb(0,0,0)" stroke-linecap="butt" stroke-miterlimit="10.0" stroke-opacity="1.0" stroke-width="0.0">
    <path d="M 458.7235,126.7849 c 7.7055,3.3563 12.7004,10.1156 12.7004 10.1156l -1.1423,-5.0812 l -11.5582,-5.0344 c 7.7055,3.3563 16.0567,2.4102 16.0567 2.4102l -4.4985,2.6242 Z"/>
  </g>
  <g stroke-linejoin="miter" fill-opacity="1.0" fill="rgb(0,0,0)" stroke="rgb(0,0,0)" stroke-linecap="butt" stroke-miterlimit="10.0" stroke-opacity="1.0" stroke-width="0.0">
    <path d="M 470.2816,131.8194 l 0.8233,0.3586 l -0.4899,1.1246 l -0.3334,-1.4832 l 0.8233,0.3586 l 0.4899,-1.1246 Z"/>
  </g>
  <g stroke-linejoin="miter" fill-opacity="0.0" fill="rgb(0,0,0)" stroke="rgb(0,0,0)" stroke-linecap="butt" stroke-miterlimit="10.0" stroke-opacity="1.0" stroke-width="2.4533314021832653">
    <path d="M 609.7363,279.4400 c 17.5277,-8.0299 44.9134,-20.5819 64.8198 -29.7023"/>
  </g>
  <g stroke-linejoin="miter" fill-opacity="1.0" fill="rgb(0,0,0)" stroke="rgb(0,0,0)" stroke-linecap="butt" stroke-miterlimit="10.0" stroke-opacity="1.0" stroke-width="0.0">
  </g>
  <g stroke-linejoin="miter" fill-opacity="1.0" fill="rgb(0,0,0)" stroke="rgb(0,0,0)" stroke-linecap="butt" stroke-miterlimit="10.0" stroke-opacity="1.0" stroke-width="0.0">
  </g>
  <g stroke-linejoin="miter" fill-opacity="1.0" fill="rgb(0,0,0)" stroke="rgb(0,0,0)" stroke-linecap="butt" stroke-miterlimit="10.0" stroke-opacity="1.0" stroke-width="0.0">
    <path d="M 686.8338,244.1125 c -7.6409,3.5008 -16.0085,2.7121 -16.0085 2.7121l 4.5471,2.5391 l 11.4613,-5.2512 c -7.6409,3.5008 -12.5077,10.3530 -12.5077 10.3530l 1.0464,-5.1018 Z"/>
  </g>
  <g stroke-linejoin="miter" fill-opacity="1.0" fill="rgb(0,0,0)" stroke="rgb(0,0,0)" stroke-linecap="butt" stroke-miterlimit="10.0" stroke-opacity="1.0" stroke-width="0.0">
    <path d="M 675.3725,249.3637 l -0.8164,0.3740 l -0.5109,-1.1152 l 1.3273,0.7412 l -0.8164,0.3740 l 0.5109,1.1152 Z"/>
  </g>
  <g stroke-linejoin="miter" fill-opacity="0.0" fill="rgb(0,0,0)" stroke="rgb(0,0,0)" stroke-linecap="butt" stroke-miterlimit="10.0" stroke-opacity="1.0" stroke-width="2.4533314021832653">
    <path d="M 606.2303,307.6144 c 8.0835,6.4994 19.3192,15.5329 28.5171 22.9250"/>
  </g>
  <g stroke-linejoin="miter" fill-opacity="1.0" fill="rgb(0,0,0)" stroke="rgb(0,0,0)" stroke-linecap="butt" stroke-miterlimit="10.0" stroke-opacity="1.0" stroke-width="0.0">
  </g>
  <g stroke-linejoin="miter" fill-opacity="1.0" fill="rgb(0,0,0)" stroke="rgb(0,0,0)" stroke-linecap="butt" stroke-miterlimit="10.0" stroke-opacity="1.0" stroke-width="0.0">
  </g>
  <g stroke-linejoin="miter" fill-opacity="1.0" fill="rgb(0,0,0)" stroke="rgb(0,0,0)" stroke-linecap="butt" stroke-miterlimit="10.0" stroke-opacity="1.0" stroke-width="0.0">
    <path d="M 645.2741,338.9995 c -6.5512,-5.2650 -9.5921,-13.1003 -9.5921 -13.1003l -0.2346,5.2027 l 9.8268,7.8976 c -6.5512,-5.2650 -14.8572,-6.5491 -14.8572 -6.5491l 5.0304,-1.3485 Z"/>
  </g>
  <g stroke-linejoin="miter" fill-opacity="1.0" fill="rgb(0,0,0)" stroke="rgb(0,0,0)" stroke-linecap="butt" stroke-miterlimit="10.0" stroke-opacity="1.0" stroke-width="0.0">
    <path d="M 635.4473,331.1019 l -0.6999,-0.5625 l 0.7684,-0.9561 l -0.0685,1.5187 l -0.6999,-0.5625 l -0.7684,0.9561 Z"/>
  </g>
  <g stroke-linejoin="miter" fill-opacity="0.0" fill="rgb(0,0,0)" stroke="rgb(0,0,0)" stroke-linecap="butt" stroke-miterlimit="10.0" stroke-opacity="1.0" stroke-width="2.4533314021832653">
    <path d="M 239.6831,249.0007 c 36.7304,-2.5835 108.9040,-7.6652 151.0898 -10.6408"/>
  </g>
  <g stroke-linejoin="miter" fill-opacity="1.0" fill="rgb(0,0,0)" stroke="rgb(0,0,0)" stroke-linecap="butt" stroke-miterlimit="10.0" stroke-opacity="1.0" stroke-width="0.0">
  </g>
  <g stroke-linejoin="miter" fill-opacity="1.0" fill="rgb(0,0,0)" stroke="rgb(0,0,0)" stroke-linecap="butt" stroke-miterlimit="10.0" stroke-opacity="1.0" stroke-width="0.0">
  </g>
  <g stroke-linejoin="miter" fill-opacity="1.0" fill="rgb(0,0,0)" stroke="rgb(0,0,0)" stroke-linecap="butt" stroke-miterlimit="10.0" stroke-opacity="1.0" stroke-width="0.0">
    <path d="M 404.2445,237.4096 c -8.3838,0.5914 -15.9402,-3.0884 -15.9402 -3.0884l 3.3644,3.9755 l 12.5758,-0.8871 c -8.3838,0.5914 -15.3488,5.2954 -15.3488 5.2954l 2.7730,-4.4084 Z"/>
  </g>
  <g stroke-linejoin="miter" fill-opacity="1.0" fill="rgb(0,0,0)" stroke="rgb(0,0,0)" stroke-linecap="butt" stroke-miterlimit="10.0" stroke-opacity="1.0" stroke-width="0.0">
    <path d="M 391.6687,238.2967 l -0.8958,0.0632 l -0.0863,-1.2236 l 0.9821,1.1604 l -0.8958,0.0632 l 0.0863,1.2236 Z"/>
  </g>
  <g stroke-linejoin="miter" fill-opacity="0.0" fill="rgb(0,0,0)" stroke="rgb(0,0,0)" stroke-linecap="butt" stroke-miterlimit="10.0" stroke-opacity="1.0" stroke-width="2.4533314021832653">
    <path d="M 189.1386,264.0309 c -14.2430,7.9269 -35.6003,19.8056 -51.7366 28.7843"/>
  </g>
  <g stroke-linejoin="miter" fill-opacity="1.0" fill="rgb(0,0,0)" stroke="rgb(0,0,0)" stroke-linecap="butt" stroke-miterlimit="10.0" stroke-opacity="1.0" stroke-width="0.0">
  </g>
  <g stroke-linejoin="miter" fill-opacity="1.0" fill="rgb(0,0,0)" stroke="rgb(0,0,0)" stroke-linecap="butt" stroke-miterlimit="10.0" stroke-opacity="1.0" stroke-width="0.0">
  </g>
  <g stroke-linejoin="miter" fill-opacity="1.0" fill="rgb(0,0,0)" stroke="rgb(0,0,0)" stroke-linecap="butt" stroke-miterlimit="10.0" stroke-opacity="1.0" stroke-width="0.0">
    <path d="M 125.6010,299.3817 c 7.3443,-4.0866 15.7479,-3.9535 15.7479 -3.9535l -4.7315,-2.1763 l -11.0164,6.1299 c 7.3443,-4.0866 11.6613,-11.2978 11.6613 -11.2978l -0.6449,5.1679 Z"/>
  </g>
  <g stroke-linejoin="miter" fill-opacity="1.0" fill="rgb(0,0,0)" stroke="rgb(0,0,0)" stroke-linecap="butt" stroke-miterlimit="10.0" stroke-opacity="1.0" stroke-width="0.0">
    <path d="M 136.6174,293.2518 l 0.7847,-0.4366 l 0.5964,1.0719 l -1.3811,-0.6353 l 0.7847,-0.4366 l -0.5964,-1.0719 Z"/>
  </g>
  <g stroke-linejoin="miter" fill-opacity="0.0" fill="rgb(0,0,0)" stroke="rgb(0,0,0)" stroke-linecap="butt" stroke-miterlimit="10.0" stroke-opacity="1.0" stroke-width="2.4533314021832653">
    <path d="M 751.0243,113.5613 c 17.6927,-7.3713 44.8726,-18.6945 64.9429 -27.0614"/>
  </g>
  <g stroke-linejoin="miter" fill-opacity="1.0" fill="rgb(0,0,0)" stroke="rgb(0,0,0)" stroke-linecap="butt" stroke-miterlimit="10.0" stroke-opacity="1.0" stroke-width="0.0">
  </g>
  <g stroke-linejoin="miter" fill-opacity="1.0" fill="rgb(0,0,0)" stroke="rgb(0,0,0)" stroke-linecap="butt" stroke-miterlimit="10.0" stroke-opacity="1.0" stroke-width="0.0">
  </g>
  <g stroke-linejoin="miter" fill-opacity="1.0" fill="rgb(0,0,0)" stroke="rgb(0,0,0)" stroke-linecap="butt" stroke-miterlimit="10.0" stroke-opacity="1.0" stroke-width="0.0">
    <path d="M 828.4324,81.3033 c -7.7576,3.2340 -16.0928,2.1559 -16.0928 2.1559l 4.4565,2.6951 l 11.6364,-4.8510 c -7.7576,3.2340 -12.8588,9.9135 -12.8588 9.9135l 1.2225,-5.0625 Z"/>
  </g>
  <g stroke-linejoin="miter" fill-opacity="1.0" fill="rgb(0,0,0)" stroke="rgb(0,0,0)" stroke-linecap="butt" stroke-miterlimit="10.0" stroke-opacity="1.0" stroke-width="0.0">
    <path d="M 816.7960,86.1543 l -0.8288,0.3455 l -0.4720,-1.1322 l 1.3008,0.7867 l -0.8288,0.3455 l 0.4720,1.1322 Z"/>
  </g>
  <g stroke-linejoin="miter" fill-opacity="0.0" fill="rgb(0,0,0)" stroke="rgb(0,0,0)" stroke-linecap="butt" stroke-miterlimit="10.0" stroke-opacity="1.0" stroke-width="2.4533314021832653">
    <path d="M 686.3776,222.6662 c -21.3032,-8.6842 -56.6479,-23.0973 -80.9932 -33.0221"/>
  </g>
  <g stroke-linejoin="miter" fill-opacity="1.0" fill="rgb(0,0,0)" stroke="rgb(0,0,0)" stroke-linecap="butt" stroke-miterlimit="10.0" stroke-opacity="1.0" stroke-width="0.0">
  </g>
  <g stroke-linejoin="miter" fill-opacity="1.0" fill="rgb(0,0,0)" stroke="rgb(0,0,0)" stroke-linecap="butt" stroke-miterlimit="10.0" stroke-opacity="1.0" stroke-width="0.0">
  </g>
  <g stroke-linejoin="miter" fill-opacity="1.0" fill="rgb(0,0,0)" stroke="rgb(0,0,0)" stroke-linecap="butt" stroke-miterlimit="10.0" stroke-opacity="1.0" stroke-width="0.0">
    <path d="M 592.8786,184.5459 c 7.7828,3.1728 12.9365,9.8119 12.9365 9.8119l -1.2623,-5.0527 l -11.6742,-4.7592 c 7.7828,3.1728 16.1093,2.0291 16.1093 2.0291l -4.4351,2.7301 Z"/>
  </g>
  <g stroke-linejoin="miter" fill-opacity="1.0" fill="rgb(0,0,0)" stroke="rgb(0,0,0)" stroke-linecap="butt" stroke-miterlimit="10.0" stroke-opacity="1.0" stroke-width="0.0">
    <path d="M 604.5528,189.3051 l 0.8315,0.3390 l -0.4631,1.1359 l -0.3685,-1.4749 l 0.8315,0.3390 l 0.4631,-1.1359 Z"/>
  </g>
  <g stroke-linejoin="miter" fill-opacity="0.0" fill="rgb(0,0,0)" stroke="rgb(0,0,0)" stroke-linecap="butt" stroke-miterlimit="10.0" stroke-opacity="1.0" stroke-width="2.4533314021832653">
    <path d="M 454.9396,222.6492 c 18.6153,-10.0788 51.3878,-24.7665 75.0851 -33.8285"/>
  </g>
  <g stroke-linejoin="miter" fill-opacity="1.0" fill="rgb(0,0,0)" stroke="rgb(0,0,0)" stroke-linecap="butt" stroke-miterlimit="10.0" stroke-opacity="1.0" stroke-width="0.0">
  </g>
  <g stroke-linejoin="miter" fill-opacity="1.0" fill="rgb(0,0,0)" stroke="rgb(0,0,0)" stroke-linecap="butt" stroke-miterlimit="10.0" stroke-opacity="1.0" stroke-width="0.0">
  </g>
  <g stroke-linejoin="miter" fill-opacity="1.0" fill="rgb(0,0,0)" stroke="rgb(0,0,0)" stroke-linecap="butt" stroke-miterlimit="10.0" stroke-opacity="1.0" stroke-width="0.0">
    <path d="M 542.6388,183.9970 c -7.8503,3.0020 -16.1498,1.6767 -16.1498 1.6767l 4.3744,2.8263 l 11.7754,-4.5030 c -7.8503,3.0020 -13.1478,9.5269 -13.1478 9.5269l 1.3724,-5.0239 Z"/>
  </g>
  <g stroke-linejoin="miter" fill-opacity="1.0" fill="rgb(0,0,0)" stroke="rgb(0,0,0)" stroke-linecap="butt" stroke-miterlimit="10.0" stroke-opacity="1.0" stroke-width="0.0">
    <path d="M 530.8634,188.5000 l -0.8387,0.3207 l -0.4381,-1.1457 l 1.2769,0.8250 l -0.8387,0.3207 l 0.4381,1.1457 Z"/>
  </g>
  <g stroke-linejoin="miter" fill-opacity="0.0" fill="rgb(0,0,0)" stroke="rgb(0,0,0)" stroke-linecap="butt" stroke-miterlimit="10.0" stroke-opacity="1.0" stroke-width="2.4533314021832653">
    <path d="M 456.6131,244.6240 c 23.5920,8.4576 63.5485,22.7629 90.4280 32.3965"/>
  </g>
  <g stroke-linejoin="miter" fill-opacity="1.0" fill="rgb(0,0,0)" stroke="rgb(0,0,0)" stroke-linecap="butt" stroke-miterlimit="10.0" stroke-opacity="1.0" stroke-width="0.0">
  </g>
  <g stroke-linejoin="miter" fill-opacity="1.0" fill="rgb(0,0,0)" stroke="rgb(0,0,0)" stroke-linecap="butt" stroke-miterlimit="10.0" stroke-opacity="1.0" stroke-width="0.0">
  </g>
  <g stroke-linejoin="miter" fill-opacity="1.0" fill="rgb(0,0,0)" stroke="rgb(0,0,0)" stroke-linecap="butt" stroke-miterlimit="10.0" stroke-opacity="1.0" stroke-width="0.0">
    <path d="M 559.7542,281.5769 c -7.9119,-2.8356 -13.3460,-9.2473 -13.3460 -9.2473l 1.4781,4.9938 l 11.8678,4.2534 c -7.9119,-2.8356 -16.1816,-1.3354 -16.1816 -1.3354l 4.3138,-2.9180 Z"/>
  </g>
  <g stroke-linejoin="miter" fill-opacity="1.0" fill="rgb(0,0,0)" stroke="rgb(0,0,0)" stroke-linecap="butt" stroke-miterlimit="10.0" stroke-opacity="1.0" stroke-width="0.0">
    <path d="M 547.8864,277.3235 l -0.8453,-0.3030 l 0.4139,-1.1547 l 0.4315,1.4577 l -0.8453,-0.3030 l -0.4139,1.1547 Z"/>
  </g>
  <g stroke-linejoin="miter" fill-opacity="0.0" fill="rgb(0,0,0)" stroke="rgb(0,0,0)" stroke-linecap="butt" stroke-miterlimit="10.0" stroke-opacity="1.0" stroke-width="2.4533314021832653">
    <path d="M 46.8988,223.2016 c 31.7037,5.2928 89.7517,14.9850 125.8796 21.0195"/>
  </g>
  <g stroke-linejoin="miter" fill-opacity="1.0" fill="rgb(0,0,0)" stroke="rgb(0,0,0)" stroke-linecap="butt" stroke-miterlimit="10.0" stroke-opacity="1.0" stroke-width="0.0">
  </g>
  <g stroke-linejoin="miter" fill-opacity="1.0" fill="rgb(0,0,0)" stroke="rgb(0,0,0)" stroke-linecap="butt" stroke-miterlimit="10.0" stroke-opacity="1.0" stroke-width="0.0">
  </g>
  <g stroke-linejoin="miter" fill-opacity="1.0" fill="rgb(0,0,0)" stroke="rgb(0,0,0)" stroke-linecap="butt" stroke-miterlimit="10.0" stroke-opacity="1.0" stroke-width="0.0">
    <path d="M 186.0988,246.4460 c -8.2898,-1.3847 -14.7767,-6.7287 -14.7767 -6.7287l 2.3420,4.6517 l 12.4347,2.0770 c -8.2898,-1.3847 -16.1614,1.5611 -16.1614 1.5611l 3.7266,-3.6381 Z"/>
  </g>
  <g stroke-linejoin="miter" fill-opacity="1.0" fill="rgb(0,0,0)" stroke="rgb(0,0,0)" stroke-linecap="butt" stroke-miterlimit="10.0" stroke-opacity="1.0" stroke-width="0.0">
    <path d="M 173.6640,244.3690 l -0.8857,-0.1479 l 0.2021,-1.2099 l 0.6836,1.3578 l -0.8857,-0.1479 l -0.2021,1.2099 Z"/>
  </g>
</svg>